# xmcd
#
# Track frame offsets:
# 150
# 14783
# 25714
# 37507
# 49626
# 59785
# 75947
# 91447
# 107090
# 113193
# 129516
# 147390
# 153071
#
# Disc length: 2278 seconds
#
#
# Revision: 0
# Processed by: cddbd v1.5.1PL0 Copyright (c) Steve Scherf et al.
# Submitted via: FreeRIP 2.931 
#
DISCID=9e08e40d
DTITLE=Rob Lumbard - Lumbard and Floyd
DYEAR=2004
DGENRE=Folk
TTITLE0=Natch
TTITLE1=Sweet Lorraine
TTITLE2=In Tall Buildings
TTITLE3=Drinking Wine Spo Dee Odee
TTITLE4=Buckshot
TTITLE5=Do You Know What It Means To Miss New Orleans
TTITLE6=Nothing In This World That Lasts
TTITLE7=Wish I Was A Train
TTITLE8=Closer Walk With Thee
TTITLE9=The Road To Kingdom Come
TTITLE10=I Can't Be Satisfied
TTITLE11=Jordan Creek
TTITLE12=When I've Got The Moon
EXTD=
EXTT0=
EXTT1=
EXTT2=
EXTT3=
EXTT4=
EXTT5=
EXTT6=
EXTT7=
EXTT8=
EXTT9=
EXTT10=
EXTT11=
EXTT12=
PLAYORDER=
